<svg width="12" height="10" viewBox="0 0 12 10" fill="none" xmlns="http://www.w3.org/2000/svg">
<path d="M4.96325 9.24491C4.91008 9.19311 4.68275 8.99754 4.49575 8.81537C3.31967 7.74734 1.39467 4.96117 0.807083 3.5029C0.712667 3.28144 0.512833 2.72153 0.5 2.42237C0.5 2.13572 0.566 1.86246 0.699833 1.6017C0.886833 1.27665 1.18108 1.01589 1.5285 0.873011C1.76958 0.781032 2.491 0.638152 2.50383 0.638152C3.29308 0.495271 4.5755 0.416687 5.99267 0.416687C7.34292 0.416687 8.57308 0.495271 9.37425 0.612254C9.38708 0.625649 10.2836 0.76853 10.5907 0.924805C11.1517 1.21146 11.5 1.77137 11.5 2.37058V2.42237C11.4863 2.81261 11.1379 3.63328 11.1251 3.63328C10.5366 5.01297 8.706 7.73484 7.48958 8.82877C7.48958 8.82877 7.177 9.13685 6.98175 9.2708C6.70125 9.47977 6.35383 9.58335 6.00642 9.58335C5.61867 9.58335 5.2575 9.46637 4.96325 9.24491" fill="#27AE60"/>
</svg>
