<svg width="23" height="24" viewBox="0 0 23 24" fill="none" xmlns="http://www.w3.org/2000/svg">
<path fill-rule="evenodd" clip-rule="evenodd" d="M12.0822 2C8.72046 2 5.99524 4.72522 5.99524 8.08696V10.1795C5.99524 11.2798 5.28616 12.2422 4.72257 13.1872C4.42631 13.684 4.2561 14.2647 4.2561 14.8851C4.2561 16.488 5.4013 17.8633 6.98902 18.0834C8.5657 18.3021 10.5358 18.522 12.0822 18.522C13.6285 18.522 15.5987 18.3021 17.1754 18.0834C18.7631 17.8633 19.9083 16.488 19.9083 14.8851C19.9083 14.2647 19.7381 13.684 19.4418 13.1872C18.8782 12.2422 18.1692 11.2798 18.1692 10.1795V8.08696C18.1692 4.72522 15.4439 2 12.0822 2Z" fill="#252525"/>
<path d="M4.2561 14.8851H3.5061H4.2561ZM6.98902 18.0834L7.09203 17.3405H7.09203L6.98902 18.0834ZM17.1754 18.0834L17.0724 17.3405H17.0724L17.1754 18.0834ZM4.72257 13.1872L4.07842 12.8031L4.72257 13.1872ZM6.74524 8.08696C6.74524 5.13944 9.13468 2.75 12.0822 2.75V1.25C8.30625 1.25 5.24524 4.31101 5.24524 8.08696H6.74524ZM6.74524 10.1795V8.08696H5.24524V10.1795H6.74524ZM5.0061 14.8851C5.0061 14.4037 5.13781 13.9552 5.36672 13.5714L4.07842 12.8031C3.7148 13.4128 3.5061 14.1257 3.5061 14.8851H5.0061ZM7.09203 17.3405C5.89239 17.1742 5.0061 16.1313 5.0061 14.8851H3.5061C3.5061 16.8448 4.91022 18.5524 6.886 18.8263L7.09203 17.3405ZM12.0822 17.772C10.5902 17.772 8.66262 17.5583 7.09203 17.3405L6.886 18.8263C8.46878 19.0458 10.4815 19.272 12.0822 19.272V17.772ZM17.0724 17.3405C15.5018 17.5583 13.5742 17.772 12.0822 17.772V19.272C13.6829 19.272 15.6956 19.0458 17.2784 18.8263L17.0724 17.3405ZM19.1583 14.8851C19.1583 16.1313 18.272 17.1742 17.0724 17.3405L17.2784 18.8263C19.2542 18.5524 20.6583 16.8448 20.6583 14.8851H19.1583ZM18.7977 13.5714C19.0266 13.9552 19.1583 14.4037 19.1583 14.8851H20.6583C20.6583 14.1257 20.4496 13.4128 20.086 12.8031L18.7977 13.5714ZM17.4192 8.08696V10.1795H18.9192V8.08696H17.4192ZM12.0822 2.75C15.0297 2.75 17.4192 5.13944 17.4192 8.08696H18.9192C18.9192 4.31101 15.8581 1.25 12.0822 1.25V2.75ZM20.086 12.8031C19.7771 12.2851 19.4965 11.8701 19.2652 11.4066C19.0437 10.9629 18.9192 10.567 18.9192 10.1795H17.4192C17.4192 10.8924 17.6492 11.5278 17.9231 12.0766C18.1872 12.6056 18.543 13.1443 18.7977 13.5714L20.086 12.8031ZM5.24524 10.1795C5.24524 10.567 5.12072 10.9629 4.89921 11.4066C4.66786 11.8701 4.38731 12.2851 4.07842 12.8031L5.36672 13.5714C5.62142 13.1443 5.9772 12.6056 6.2413 12.0766C6.51522 11.5278 6.74524 10.8923 6.74524 10.1795H5.24524Z" fill="#252525"/>
<path d="M14.2561 20.834C13.7887 21.5369 12.9896 22.0002 12.0822 22.0002C11.1748 22.0002 10.3756 21.5369 9.90828 20.834" stroke="#252525" stroke-width="1.5" stroke-linecap="round"/>
</svg>
