<svg width="19" height="18" viewBox="0 0 19 18" fill="none" xmlns="http://www.w3.org/2000/svg">
<path fill-rule="evenodd" clip-rule="evenodd" d="M0.5 9.01195C0.5 4.27083 4.28901 -0.00158691 9.51801 -0.00158691C14.63 -0.00158691 18.5 4.18971 18.5 8.98491C18.5 14.5463 13.964 17.9984 9.50001 17.9984C8.02401 17.9984 6.38601 17.6018 5.07201 16.8267C4.61301 16.5473 4.22601 16.3399 3.731 16.5022L1.913 17.043C1.454 17.1872 1.04 16.8267 1.175 16.34L1.778 14.3209C1.877 14.0415 1.859 13.7441 1.715 13.5097C0.941001 12.0856 0.5 10.5262 0.5 9.01195ZM12.479 9.01941C12.479 9.65036 12.992 10.1731 13.631 10.1731C14.27 10.1731 14.783 9.65036 14.783 9.01941C14.783 8.37945 14.27 7.86568 13.631 7.86568C12.992 7.86568 12.479 8.37945 12.479 9.01941ZM8.33 9.01051C8.33 9.65047 8.843 10.1642 9.48201 10.1733C10.121 10.1733 10.634 9.65047 10.634 9.01953C10.634 8.37957 10.121 7.86579 9.48201 7.86579C8.85201 7.85678 8.33 8.37957 8.33 9.01051ZM5.333 10.1739C4.703 10.1739 4.181 9.65107 4.181 9.02013C4.181 8.38017 4.694 7.86639 5.333 7.86639C5.972 7.86639 6.485 8.38017 6.485 9.02013C6.485 9.65107 5.972 10.1648 5.333 10.1739Z" fill="#979797"/>
</svg>
