<svg width="21" height="16" viewBox="0 0 21 16" fill="none" xmlns="http://www.w3.org/2000/svg">
<path d="M0 2.66667C0 1.95942 0.276562 1.28115 0.768845 0.781048C1.26113 0.280951 1.92881 0 2.625 0H18.375C19.0712 0 19.7389 0.280951 20.2312 0.781048C20.7234 1.28115 21 1.95942 21 2.66667V9.33333H0V2.66667ZM15.0938 4C14.9197 4 14.7528 4.07024 14.6297 4.19526C14.5066 4.32029 14.4375 4.48986 14.4375 4.66667V6C14.4375 6.17681 14.5066 6.34638 14.6297 6.4714C14.7528 6.59643 14.9197 6.66667 15.0938 6.66667H17.7188C17.8928 6.66667 18.0597 6.59643 18.1828 6.4714C18.3059 6.34638 18.375 6.17681 18.375 6V4.66667C18.375 4.48986 18.3059 4.32029 18.1828 4.19526C18.0597 4.07024 17.8928 4 17.7188 4H15.0938ZM0 12V13.3333C0 14.0406 0.276562 14.7189 0.768845 15.219C1.26113 15.719 1.92881 16 2.625 16H18.375C19.0712 16 19.7389 15.719 20.2312 15.219C20.7234 14.7189 21 14.0406 21 13.3333V12H0Z" fill="#979797"/>
</svg>
