<svg width="20" height="19" viewBox="0 0 20 19" fill="none" xmlns="http://www.w3.org/2000/svg">
<path d="M1.25 14.6853C1.25 14.1539 1.38544 13.6312 1.64353 13.1666L7.0562 3.42383C7.53599 2.56021 8.37081 1.95084 9.33956 1.75709V1.75709C9.77554 1.66989 10.2245 1.66989 10.6604 1.75709V1.75709C11.6292 1.95084 12.464 2.56021 12.9438 3.42383L18.3565 13.1666C18.6146 13.6312 18.75 14.1539 18.75 14.6853V14.6853C18.75 16.4124 17.3499 17.8125 15.6228 17.8125H4.37717C2.65008 17.8125 1.25 16.4124 1.25 14.6853V14.6853Z" stroke="#252525" stroke-width="1.75"/>
<path d="M10 6.875L10 10.375" stroke="#252525" stroke-width="1.75" stroke-linecap="square" stroke-linejoin="round"/>
<path d="M10 13L10 13.4375" stroke="#252525" stroke-width="1.75" stroke-linecap="square" stroke-linejoin="round"/>
</svg>
