<svg width="59" height="31" viewBox="0 0 59 31" fill="none" xmlns="http://www.w3.org/2000/svg">
<path d="M23.8525 4.90001V1.0043H27.9484V4.90001H23.8525ZM23.8525 22.4307V6.96245H27.9484V22.4307H23.8525Z" fill="black"/>
<path d="M40.5203 6.59006C42.2409 6.59006 43.5969 7.18206 44.5881 8.36605C45.5981 9.53094 46.103 11.0969 46.103 13.0638V22.4307H42.0072V13.7226C42.0072 11.412 41.1281 10.2566 39.3701 10.2566C38.6781 10.2566 38.0702 10.4189 37.5466 10.7436C37.0416 11.0682 36.6488 11.5361 36.3683 12.1472C36.1065 12.7583 35.9755 13.4744 35.9755 14.2955V22.4307H31.8797V6.96245H34.6851L35.4986 8.88166C35.7792 8.51882 36.0971 8.20373 36.4525 7.93637C36.8265 7.64992 37.2286 7.41122 37.6588 7.22025C38.0889 7.01019 38.5378 6.85741 39.0054 6.76193C39.4916 6.64735 39.9966 6.59006 40.5203 6.59006Z" fill="black"/>
<path d="M57.1484 18.7069H59V22.4307H56.1104C55.007 22.4307 54.0438 22.2111 53.2209 21.7719C52.4167 21.3327 51.7995 20.7025 51.3693 19.8813C50.9391 19.0411 50.7241 18.048 50.7241 16.9022V10.3139H47.9748V9.42591L53.9783 2.92351H54.7358V6.96245H58.9158V10.3139H54.82V16.358C54.82 17.1028 55.0163 17.6852 55.4091 18.1053C55.8205 18.5064 56.4003 18.7069 57.1484 18.7069Z" fill="black"/>
<path fill-rule="evenodd" clip-rule="evenodd" d="M20.8047 0.918433C20.8047 0.918433 20.8051 0.918482 20.6179 2.67941C20.4307 4.44034 20.4307 4.44033 20.4307 4.44033L20.3706 4.43375C20.3301 4.42933 20.2696 4.42277 20.1906 4.41432C20.0325 4.39741 19.8006 4.37292 19.5071 4.34281C18.9198 4.28257 18.0863 4.1999 17.1037 4.11042C15.1348 3.93113 12.5828 3.72591 10.2179 3.61794C8.94827 3.55998 7.7822 3.53298 6.80743 3.54595C7.13791 4.09631 7.38891 4.69568 7.58433 5.2771C8.05435 6.6755 8.33496 8.3707 8.48666 10.1504C8.50467 10.3617 8.52095 10.5753 8.53555 10.791C8.71318 10.7281 8.89063 10.6682 9.06758 10.6111C11.6215 9.78761 14.2353 9.50602 16.1779 9.42337C17.1564 9.38174 17.9816 9.38996 18.5664 9.40889C18.8592 9.41836 19.0926 9.43055 19.256 9.44063C19.3378 9.44568 19.402 9.4502 19.4475 9.45361C19.4703 9.45531 19.4883 9.45674 19.5015 9.45781L19.5177 9.45914L19.523 9.45959L19.5249 9.45976C19.5249 9.45976 19.5264 9.45989 19.3788 11.2247C19.2313 12.9896 19.2323 12.9897 19.2323 12.9897L19.2267 12.9892L19.1937 12.9867C19.1625 12.9843 19.113 12.9808 19.0467 12.9767C18.9138 12.9685 18.7136 12.958 18.4565 12.9496C17.9416 12.933 17.2025 12.9254 16.3223 12.9628C14.5476 13.0383 12.267 13.2945 10.1123 13.9892C9.60047 14.1543 9.10467 14.3411 8.63027 14.5517C8.60113 16.9232 8.4199 19.3524 8.13643 21.5486C7.90358 23.3527 7.59708 25.0364 7.2356 26.4294C6.89418 27.7451 6.44527 29.0451 5.81823 29.879C5.51931 30.2765 4.90723 30.9336 3.94229 30.9953C2.88783 31.0628 2.18739 30.389 1.83021 29.904C1.46023 29.4016 1.18575 28.7581 0.963627 28.0762C0.733552 27.3698 0.522894 26.5046 0.328372 25.4784C-0.489706 21.1627 0.265579 17.8024 2.09576 15.2913C2.95056 14.1185 4.00127 13.1843 5.14298 12.4392C5.12166 11.7579 5.08453 11.0943 5.03026 10.4576C4.89098 8.82351 4.64492 7.44506 4.30275 6.42705C3.93675 5.33814 3.57491 5.00005 3.45213 4.93281C3.0415 4.70793 2.62071 4.43862 2.29179 4.10681C2.01819 3.83081 1.39318 3.08113 1.64216 2.02595C1.871 1.05615 2.6648 0.651077 2.95117 0.521956C3.3316 0.35042 3.75417 0.253986 4.12647 0.191508C5.59533 -0.0549858 7.99371 -0.0296807 10.3729 0.0789412C12.811 0.190255 15.4202 0.400523 17.4119 0.581891C18.4095 0.672743 19.2561 0.756701 19.8538 0.818008C20.1527 0.848668 20.3896 0.873679 20.5522 0.891077C20.6335 0.899776 20.6962 0.906573 20.7389 0.911222L20.8047 0.918433ZM5.06411 17.1637C5.0007 17.2432 4.939 17.324 4.87907 17.4062C3.73542 18.9754 3.06576 21.2768 3.73462 24.8053C3.78343 25.0628 3.83221 25.3028 3.88078 25.5262C3.88114 25.5249 3.8815 25.5235 3.88186 25.5221C4.19509 24.315 4.4771 22.7873 4.69671 21.0858C4.85854 19.832 4.98397 18.5038 5.06411 17.1637ZM3.042 27.7508C3.042 27.7508 3.04761 27.7429 3.05906 27.7311C3.04777 27.7456 3.042 27.7508 3.042 27.7508Z" fill="black"/>
</svg>
