<svg width="17" height="27" viewBox="0 0 17 27" fill="none" xmlns="http://www.w3.org/2000/svg">
<path fill-rule="evenodd" clip-rule="evenodd" d="M16.7676 0.794447C16.7676 0.794447 16.7679 0.794489 16.617 2.3177C16.4661 3.8409 16.466 3.8409 16.466 3.8409L16.4177 3.83521C16.385 3.83138 16.3362 3.82571 16.2725 3.8184C16.1451 3.80377 15.9581 3.78259 15.7214 3.75654C15.2479 3.70443 14.576 3.63293 13.7838 3.55553C12.1965 3.40043 10.139 3.22292 8.23241 3.12953C7.20881 3.07939 6.26873 3.05604 5.48285 3.06726C5.74929 3.54332 5.95164 4.06178 6.10919 4.56471C6.48813 5.77432 6.71436 7.24067 6.83666 8.78012C6.85119 8.96292 6.86431 9.1477 6.87608 9.33424C7.01929 9.27981 7.16235 9.22798 7.30501 9.17863C9.36402 8.46631 11.4713 8.22273 13.0374 8.15124C13.8263 8.11523 14.4916 8.12234 14.9631 8.13871C15.1991 8.1469 15.3873 8.15744 15.5191 8.16617C15.5849 8.17053 15.6368 8.17445 15.6734 8.17739C15.6918 8.17887 15.7063 8.1801 15.717 8.18103L15.73 8.18218L15.7358 8.18271C15.7358 8.18271 15.737 8.18282 15.6181 9.70942C15.4991 11.236 15.4999 11.2361 15.4999 11.2361L15.4954 11.2357L15.4688 11.2335C15.4437 11.2315 15.4038 11.2284 15.3503 11.2249C15.2432 11.2178 15.0818 11.2087 14.8745 11.2015C14.4594 11.1871 13.8635 11.1805 13.1539 11.2129C11.7231 11.2782 9.88441 11.4997 8.14731 12.1007C7.73463 12.2435 7.33491 12.4051 6.95245 12.5873C6.92895 14.6386 6.78284 16.7399 6.5543 18.6396C6.36657 20.2002 6.11947 21.6565 5.82804 22.8615C5.55279 23.9996 5.19088 25.1241 4.68535 25.8454C4.44436 26.1892 3.95089 26.7576 3.17295 26.811C2.32283 26.8694 1.75812 26.2865 1.47017 25.867C1.17188 25.4324 0.950591 24.8759 0.771514 24.286C0.586025 23.675 0.416192 22.9266 0.259366 22.0389C-0.400177 18.3058 0.208741 15.3991 1.68425 13.227C2.3734 12.2125 3.2205 11.4045 4.14096 10.7599C4.12377 10.1706 4.09384 9.59657 4.05008 9.04581C3.93779 7.63235 3.73941 6.44 3.46355 5.55941C3.16848 4.61751 2.87676 4.32506 2.77778 4.26689C2.44672 4.07237 2.10747 3.83942 1.8423 3.5524C1.62172 3.31366 1.11782 2.66519 1.31856 1.75245C1.50305 0.91357 2.14302 0.563183 2.37389 0.451493C2.6806 0.303114 3.02128 0.219699 3.32143 0.165655C4.50565 -0.0475628 6.43924 -0.025674 8.35735 0.0682843C10.323 0.164571 12.4266 0.346453 14.0323 0.503337C14.8366 0.581924 15.5191 0.654548 16.001 0.707579C16.242 0.734099 16.4329 0.755734 16.564 0.770783C16.6296 0.778308 16.6801 0.784187 16.7145 0.788209L16.7676 0.794447ZM4.07737 14.8466C4.02625 14.9154 3.97651 14.9853 3.92819 15.0564C3.00617 16.4137 2.46627 18.4045 3.00551 21.4566C3.04486 21.6793 3.08421 21.887 3.12336 22.0803L3.12423 22.0766C3.37676 21.0325 3.60411 19.7111 3.78117 18.2393C3.91163 17.1547 4.01276 16.0059 4.07737 14.8466ZM2.44713 24.0045C2.44713 24.0045 2.45165 23.9977 2.46087 23.9875C2.45177 24 2.44713 24.0045 2.44713 24.0045Z" fill="#252525"/>
</svg>
